<?xml version="1.0" encoding="UTF-8" standalone="no"?>
<svg
   fill="none"
   height="512"
   viewBox="0 0 512 512"
   width="512"
   version="1.1"
   id="svg3"
   sodipodi:docname="safetensors-light.svg"
   inkscape:version="1.3.2 (091e20ef0f, 2023-11-25, custom)"
   inkscape:export-filename="safetensors-light-128.png"
   inkscape:export-xdpi="128"
   inkscape:export-ydpi="128"
   xmlns:inkscape="http://www.inkscape.org/namespaces/inkscape"
   xmlns:sodipodi="http://sodipodi.sourceforge.net/DTD/sodipodi-0.dtd"
   xmlns="http://www.w3.org/2000/svg"
   xmlns:svg="http://www.w3.org/2000/svg"
   xmlns:rdf="http://www.w3.org/1999/02/22-rdf-syntax-ns#"
   xmlns:cc="http://creativecommons.org/ns#"
   xmlns:dc="http://purl.org/dc/elements/1.1/">
  <defs
     id="defs3" />
  <sodipodi:namedview
     id="namedview3"
     pagecolor="#ffffff"
     bordercolor="#666666"
     borderopacity="1.0"
     inkscape:showpageshadow="2"
     inkscape:pageopacity="0.0"
     inkscape:pagecheckerboard="0"
     inkscape:deskcolor="#d1d1d1"
     inkscape:zoom="1.0155172"
     inkscape:cx="312.64856"
     inkscape:cy="285.0764"
     inkscape:window-width="1920"
     inkscape:window-height="1008"
     inkscape:window-x="0"
     inkscape:window-y="0"
     inkscape:window-maximized="1"
     inkscape:current-layer="svg3"
     inkscape:export-bgcolor="#ffffffff" />
  <path
     d="m 327.20702,241.80477 162.86131,65.35598 c 4.68621,1.87269 8.70039,5.10734 11.53182,9.27385 2.84041,4.17547 4.36365,9.09464 4.39948,14.13926 0.0271,5.04461 -1.45155,9.9817 -4.24715,14.18405 -2.78663,4.20236 -6.76498,7.47284 -11.43327,9.39929 L 265.7129,447.14657 c -6.20945,2.57159 -13.19844,2.57159 -19.40788,0 L 21.671823,354.18409 c -4.659325,-1.92645 -8.646631,-5.2059 -11.433265,-9.40826 -2.7955952,-4.19339 -4.2650744,-9.13048 -4.2381937,-14.17509 0.026881,-5.04462 1.5501214,-9.96379 4.3905177,-14.13926 2.831435,-4.16651 6.854582,-7.40116 11.531828,-9.28281 l 165.72858,-66.49394 c 9.48889,-3.79914 39.48778,7.36532 68.3487,7.46388 30.83219,0.0986 60.58019,-10.60892 71.20703,-6.34384 z M 98.622357,331.09355 255.99999,396.23449 413.39557,331.09355 255.99999,267.92386 Z M 265.46201,64.759347 490.06833,154.88144 c 4.68621,1.88165 8.70039,5.10733 11.53182,9.2828 2.84041,4.16651 4.36365,9.08573 4.39948,14.13035 0.0271,5.04462 -1.45155,9.9817 -4.24715,14.18406 -2.78663,4.20235 -6.76498,7.47284 -11.43327,9.40825 L 265.7129,294.87626 c -6.20945,2.57159 -13.19844,2.57159 -19.40788,0 L 21.671823,201.90482 c -4.659325,-1.92645 -8.646631,-5.19694 -11.433265,-9.39929 -2.7955952,-4.20236 -4.2650744,-9.13945 -4.2381937,-14.18406 0.026881,-5.04462 1.5501214,-9.96384 4.3905177,-14.1393 2.831435,-4.16651 6.854582,-7.40116 11.531828,-9.27385 L 246.52902,64.759347 c 6.07505,-2.446146 12.85795,-2.446146 18.93299,0 z M 98.622357,178.81428 255.99999,243.96418 413.39557,178.81428 255.99999,115.64455 Z"
     fill="#000000"
     id="path3"
     style="stroke-width:1" />
  <metadata
     id="metadata3">
    <rdf:RDF>
      <cc:Work
         rdf:about="">
        <dc:relation>https://huggingface.co/datasets/huggingface/documentation-images/raw/main/safetensors/safetensors-logo-light.svg</dc:relation>
        <cc:license
           rdf:resource="http://creativecommons.org/licenses/by-nc-sa/4.0/" />
      </cc:Work>
      <cc:License
         rdf:about="http://creativecommons.org/licenses/by-nc-sa/4.0/">
        <cc:permits
           rdf:resource="http://creativecommons.org/ns#Reproduction" />
        <cc:permits
           rdf:resource="http://creativecommons.org/ns#Distribution" />
        <cc:requires
           rdf:resource="http://creativecommons.org/ns#Notice" />
        <cc:requires
           rdf:resource="http://creativecommons.org/ns#Attribution" />
        <cc:prohibits
           rdf:resource="http://creativecommons.org/ns#CommercialUse" />
        <cc:permits
           rdf:resource="http://creativecommons.org/ns#DerivativeWorks" />
        <cc:requires
           rdf:resource="http://creativecommons.org/ns#ShareAlike" />
      </cc:License>
    </rdf:RDF>
  </metadata>
</svg>
